<?xml version="1.0" encoding="UTF-8" standalone="no" ?><!DOCTYPE svg PUBLIC "-//W3C//DTD SVG 1.1//EN" "http://www.w3.org/Graphics/SVG/1.1/DTD/svg11.dtd">
<svg xmlns="http://www.w3.org/2000/svg" xmlns:xlink="http://www.w3.org/1999/xlink" version="1.1" width="700" height="700" x="700" y="700" xml:space="preserve"><desc>Created with Fabric.js 1.4.12</desc><defs></defs><defs>
<path id="1024_circleText_1_customPath" d="M -150 149.99999999999997 C -150 -15.685424940000019 -15.685424939999962 -150 150.00000000000003 -150 C 315.68542494 -150 450 -15.685424939999962 450 150 C 450 315.68542493999996 315.68542494 450 150.00000000000003 450 C -12.818613626698067 450 -147.11273192634917 318.0295374943981 -149.9543085469174 155.23572193118503 Z" style="stroke: #000; stroke-width: 1.5270404739890808; stroke-dasharray: ; stroke-linecap: butt; stroke-linejoin: miter; stroke-miterlimit: 1; fill: none; fill-rule: nonzero; opacity: 0.01;" transform="translate(335.13 258.87) scale(0.65 0.65)translate(-150, -150)" stroke-linecap="round" />
</defs>
<g>
<text font-family="Courier New" font-size="50" font-weight="normal" style="stroke: none; stroke-width: 1; stroke-dasharray: ; stroke-linecap: butt; stroke-linejoin: miter; stroke-miterlimit: 1; fill: #59e361; fill-rule: nonzero; opacity: 1;" transform="translate()">
<textPath xlink:href="#1024_circleText_1_customPath" startOffset="0%">
<tspan dx="0" dy="0"  fill="#59e361">ABCDEFGsddddddddddddddddddsdfsdfsdfsdfsdfsdfsdfsddfdddHIJKLsdfsdfsdfsdfsdfsdfsdfsdfsdfsdMNOPQRSTUV</tspan></textPath>
</text>
</g>
<path d="M -150 149.99999999999997 C -150 -15.685424940000019 -15.685424939999962 -150 150.00000000000003 -150 C 315.68542494 -150 450 -15.685424939999962 450 150 C 450 315.68542493999996 315.68542494 450 150.00000000000003 450 C -12.818613626698067 450 -147.11273192634917 318.0295374943981 -149.9543085469174 155.23572193118503 Z" style="stroke: #000; stroke-width: 1.5270404739890808; stroke-dasharray: ; stroke-linecap: butt; stroke-linejoin: miter; stroke-miterlimit: 1; fill: none; fill-rule: nonzero; opacity: 0.01;" transform="translate(335.13 258.87) scale(0.65 0.65)translate(-150, -150)" stroke-linecap="round" />
</svg>